<svg width="28" height="40" viewBox="0 0 28 40" fill="none" xmlns="http://www.w3.org/2000/svg">
<path d="M4.68668 21.842L7.31827 27.6315V28.1578H19.4235L20.213 25.5262L21.792 22.8946L24.6867 19.9999L25.4762 16.842V12.1051L24.6867 8.6841L21.792 4.73673L18.1077 2.10515L14.1604 1.31567L10.4762 1.84199L5.21299 3.94725L2.31826 8.42094L1.26562 12.3683L1.52878 17.3683L4.68668 21.842Z" fill="#FFD465" stroke="black"/>
<path d="M15.4739 37.8947L12.8423 38.421L10.2107 37.1052L8.10547 35.2631L8.89494 34.7368L13.6318 34.4736L18.1055 34.7368L18.8949 35.2631L15.4739 37.8947Z" fill="#7A7A7A" stroke="black"/>
<path d="M7.57812 28.9473H19.1571V33.6841H7.57812V28.9473Z" fill="#9A9A9A"/>
<path d="M23.7366 4.93011C21.2243 1.84826 17.4703 0.0411053 13.494 0C9.51784 0.0411184 5.76347 1.84826 3.25138 4.93011C0.644479 7.97905 -0.478044 12.0269 0.188061 15.9827C0.496451 17.6645 1.11937 19.2722 2.02606 20.7196C2.53593 21.4947 3.11364 22.2204 3.75095 22.8947C4.22382 23.3943 4.6638 23.9206 5.07291 24.4737C5.85621 25.5942 6.25095 26.9387 6.19953 28.3038V34.2044C6.19132 34.2681 6.19132 34.3318 6.19953 34.3935V34.4469C6.20979 34.4922 6.22626 34.5374 6.24684 34.5785C6.90474 35.8943 8.53095 37.3314 11.0742 38.8569H11.0721C12.5318 39.7307 14.3513 39.7307 15.8089 38.8569C18.3501 37.3314 19.9784 35.8943 20.6363 34.5785C20.6568 34.5374 20.6733 34.4922 20.6835 34.4469V34.3935C20.6917 34.3318 20.6917 34.2681 20.6835 34.2044V28.3038C20.6629 26.9264 21.0947 25.5797 21.915 24.4737C22.3241 23.9206 22.7641 23.3943 23.2369 22.8947C23.8743 22.2204 24.452 21.4946 24.9618 20.7196C25.8685 19.2722 26.4914 17.6645 26.7998 15.9827C27.4659 12.0272 26.3435 7.97905 23.7366 4.93011ZM13.494 29.1838H19.0308V30.3742L14.4791 30.3721C14.0185 30.4091 13.6628 30.7936 13.6628 31.2541C13.6628 31.7167 14.0185 32.1012 14.4791 32.1361H19.0308V33.3265H7.97821V29.1838H13.494ZM13.494 24.0892C12.5359 23.0366 11.1626 21.1636 11.1626 19.6525C11.1626 17.6994 12.0364 16.5357 13.494 16.5357C14.9516 16.5357 15.8254 17.6994 15.8254 19.6525C15.8254 21.1616 14.4521 23.0201 13.494 24.0892ZM13.494 26.5789L14.3678 27.426H12.6203L13.494 26.5789ZM14.9619 37.3727C14.0594 37.9154 12.9286 37.9154 12.0261 37.3727C10.8933 36.7251 9.83447 35.9582 8.86821 35.0844H18.0787C17.1248 35.9561 16.0804 36.723 14.9619 37.3727ZM25.073 15.6784C24.8098 17.1278 24.2733 18.5156 23.4941 19.7676C23.0253 20.4584 22.4969 21.1081 21.9151 21.7105C21.4032 22.2615 20.9221 22.8433 20.478 23.4518C19.6515 24.6175 19.1663 25.9888 19.0738 27.4156H16.8986L14.7358 25.3104C15.7473 24.2002 17.5833 21.8687 17.5833 19.6256C17.5833 16.2581 15.5315 14.7511 13.4941 14.7511C11.4566 14.7511 9.40484 16.256 9.40484 19.6256C9.40484 21.8686 11.2408 24.2001 12.2523 25.3104L10.0895 27.4156H7.91432C7.82179 25.9888 7.33658 24.6175 6.51011 23.4518C6.06605 22.8433 5.58495 22.2615 5.07301 21.7105C4.49116 21.1081 3.9628 20.4584 3.49406 19.7676C1.52243 16.4864 1.28191 12.4466 2.84848 8.95342C4.41306 5.46042 7.58737 2.95447 11.3495 2.24079C15.1098 1.52737 18.9832 2.69926 21.7174 5.37811C24.4538 8.05695 25.7062 11.9037 25.073 15.6784Z" fill="black"/>
</svg>
