<svg width="19" height="24" viewBox="0 0 19 24" fill="none" xmlns="http://www.w3.org/2000/svg">
<path d="M9.5 0C9.91421 0 10.25 0.335786 10.25 0.75V2H14V0.75C14 0.335786 14.3358 0 14.75 0C15.1642 0 15.5 0.335786 15.5 0.75V2H16.25C17.4926 2 18.5 3.00736 18.5 4.25V16.4958H13.7458C12.5032 16.4958 11.4958 17.5032 11.4958 18.7458V23.5H2.25C1.00736 23.5 0 22.4926 0 21.25V4.25C0 3.00736 1.00736 2 2.25 2H3.5V0.75C3.5 0.335786 3.83579 0 4.25 0C4.66421 0 5 0.335786 5 0.75V2H8.75V0.75C8.75 0.335786 9.08579 0 9.5 0ZM3.5 8.25C3.5 8.66421 3.83579 9 4.25 9H14.25C14.6642 9 15 8.66421 15 8.25C15 7.83579 14.6642 7.5 14.25 7.5H4.25C3.83579 7.5 3.5 7.83579 3.5 8.25ZM3.5 12.75C3.5 13.1642 3.83579 13.5 4.25 13.5H14.25C14.6642 13.5 15 13.1642 15 12.75C15 12.3358 14.6642 12 14.25 12H4.25C3.83579 12 3.5 12.3358 3.5 12.75ZM3.5 17.25C3.5 17.6642 3.83579 18 4.25 18H8.75C9.16421 18 9.5 17.6642 9.5 17.25C9.5 16.8358 9.16421 16.5 8.75 16.5H4.25C3.83579 16.5 3.5 16.8358 3.5 17.25ZM12.9958 23.0606L18.0607 17.9958H13.7458C13.3316 17.9958 12.9958 18.3316 12.9958 18.7458V23.0606Z" fill="#909090"/>
</svg>
